HIERARCHY
ROOT Hips
{
	OFFSET -1.602300 6.242603 43.997101
	CHANNELS 6 Xposition Yposition Zposition Zrotation Xrotation Yrotation
	JOINT Chest
	{
		OFFSET -0.204900 1.598101 7.917301
		CHANNELS 6 Xposition Yposition Zposition Zrotation Xrotation Yrotation
		JOINT Chest2
		{
			OFFSET 0.000000 0.000000 3.404099
			CHANNELS 6 Xposition Yposition Zposition Zrotation Xrotation Yrotation
			JOINT Neck
			{
				OFFSET 0.000000 0.000000 7.928600
				CHANNELS 6 Xposition Yposition Zposition Zrotation Xrotation Yrotation
				JOINT Head
				{
					OFFSET 0.000000 0.000000 2.173897
					CHANNELS 6 Xposition Yposition Zposition Zrotation Xrotation Yrotation
					End Site
					{
						OFFSET 0.000000 0.000001 10.404503
					}
				}
			}
			JOINT LeftCollar
			{
				OFFSET 2.833800 -1.396299 4.843300
				CHANNELS 6 Xposition Yposition Zposition Zrotation Xrotation Yrotation
				JOINT LeftShoulder
				{
					OFFSET 4.363600 0.000000 0.000000
					CHANNELS 6 Xposition Yposition Zposition Zrotation Xrotation Yrotation
					JOINT LeftElbow
					{
						OFFSET 0.000000 -0.000001 -10.306900
						CHANNELS 6 Xposition Yposition Zposition Zrotation Xrotation Yrotation
						JOINT LeftWrist
						{
							OFFSET 0.000000 -0.000001 -12.404900
							CHANNELS 6 Xposition Yposition Zposition Zrotation Xrotation Yrotation
							End Site
							{
								OFFSET 0.000000 0.000000 -2.173901
							}
						}
					}
				}
			}
			JOINT RightCollar
			{
				OFFSET -2.354800 -1.897200 5.063099
				CHANNELS 6 Xposition Yposition Zposition Zrotation Xrotation Yrotation
				JOINT RightShoulder
				{
					OFFSET -4.375800 0.000000 0.000000
					CHANNELS 6 Xposition Yposition Zposition Zrotation Xrotation Yrotation
					JOINT RightElbow
					{
						OFFSET 0.000000 -0.000001 -10.005001
						CHANNELS 6 Xposition Yposition Zposition Zrotation Xrotation Yrotation
						JOINT RightWrist
						{
							OFFSET 0.000000 -0.000001 -13.174900
							CHANNELS 6 Xposition Yposition Zposition Zrotation Xrotation Yrotation
							End Site
							{
								OFFSET 0.000000 0.000000 -2.173901
							}
						}
					}
				}
			}
		}
	}
	JOINT LeftHip
	{
		OFFSET 2.240600 0.386800 -2.614101
		CHANNELS 6 Xposition Yposition Zposition Zrotation Xrotation Yrotation
		JOINT LeftKnee
		{
			OFFSET 0.000000 -0.000001 -18.592899
			CHANNELS 6 Xposition Yposition Zposition Zrotation Xrotation Yrotation
			JOINT LeftAnkle
			{
				OFFSET 0.000000 -0.000001 -18.765800
				CHANNELS 6 Xposition Yposition Zposition Zrotation Xrotation Yrotation
				End Site
				{
					OFFSET 0.000000 -8.655000 0.000000
				}
			}
		}
	}
	JOINT RightHip
	{
		OFFSET -2.014900 -0.220900 -2.615898
		CHANNELS 6 Xposition Yposition Zposition Zrotation Xrotation Yrotation
		JOINT RightKnee
		{
			OFFSET 0.000000 -0.000001 -18.633900
			CHANNELS 6 Xposition Yposition Zposition Zrotation Xrotation Yrotation
			JOINT RightAnkle
			{
				OFFSET 0.000000 -0.000001 -18.285101
				CHANNELS 6 Xposition Yposition Zposition Zrotation Xrotation Yrotation
				End Site
				{
					OFFSET 0.000000 -7.524500 0.000000
				}
			}
		}
	}
}
MOTION
Frames: 6
Frame Time: 0.041667
-6.214500 26.573502 8.066811 5.244713 -4.745906 5.098228 -0.204900 1.598099 7.917309 -5.397568 8.186567 0.961081 0.000000 0.000002 3.404101 -5.606398 -18.104062 -2.780864 0.000001 -0.000001 7.928600 8.643481 13.198395 -10.037179 0.000000 0.000001 2.173908 1.726227 -4.497968 2.742365 2.833796 -1.396301 4.843304 66.099675 -29.287680 -20.192973 4.363604 0.000008 -0.000008 -119.791027 -47.932833 -135.272921 0.000003 -0.000001 -10.306895 609.869777 -169.212978 553.919654 0.000004 0.000004 -12.404897 -326.830836 361.694252 -316.456407 -2.354803 -1.897202 5.063107 1.196123 12.078843 -13.683121 -4.375800 0.000003 -0.000019 77.641062 -3.050707 166.882272 0.000000 0.000001 -10.004992 -591.123694 -173.285164 -546.098978 -0.000000 0.000004 -13.174896 -51.883295 -14.790986 332.835282 2.240599 0.386800 -2.614106 136.033886 -38.669089 103.225810 -0.000001 0.000001 -18.592896 -113.142972 36.307281 132.485371 -0.000000 0.000001 -18.765799 10.428558 36.829377 -8.281297 -2.014896 -0.220898 -2.615901 -114.753107 -17.595399 -90.745087 0.000000 0.000003 -18.633884 176.814623 28.703320 -178.510723 -0.000005 -0.000006 -18.285084 -12.080918 33.641796 -209.498390
-6.220199 26.597105 8.036411 5.146519 -4.923597 5.078707 -0.204900 1.598101 7.917304 -5.297586 8.545402 1.075136 -0.000000 0.000002 3.404103 -5.780542 -18.192462 -2.811452 -0.000002 -0.000003 7.928600 8.666841 12.865023 -10.122177 0.000000 0.000001 2.173898 1.697393 -4.641171 2.778164 2.833798 -1.396302 4.843302 66.745818 -29.459108 -19.705145 4.363600 0.000006 -0.000010 -120.696724 -47.755593 -135.418554 -0.000000 0.000002 -10.306898 609.727217 -169.278999 553.782886 0.000002 0.000002 -12.404894 -326.688112 361.877547 -316.733822 -2.354804 -1.897206 5.063106 1.051074 11.997311 -13.826897 -4.375801 0.000001 -0.000015 78.028252 -2.898792 166.778275 0.000001 0.000004 -10.004993 -591.053534 -173.304958 -546.130561 -0.000000 0.000005 -13.174899 -51.981602 -14.543440 334.254705 2.240600 0.386803 -2.614103 136.099114 -38.667473 103.238958 0.000000 -0.000000 -18.592894 -113.352009 36.425542 132.605923 0.000001 0.000001 -18.765797 10.464354 36.866489 -8.388103 -2.014896 -0.220898 -2.615899 -114.601080 -17.781909 -90.711551 -0.000000 0.000002 -18.633884 176.589541 28.728435 -178.520941 -0.000005 -0.000006 -18.285086 -12.161107 33.613598 -209.383916
-6.225800 26.621700 8.006706 5.095336 -5.094587 5.082215 -0.204900 1.598099 7.917309 -5.240490 8.889904 1.153848 0.000000 0.000002 3.404098 -5.917191 -18.270607 -2.835635 0.000001 -0.000003 7.928601 8.657874 12.566125 -10.164932 0.000000 0.000000 2.173898 1.657583 -4.811222 2.804056 2.833798 -1.396303 4.843302 67.464128 -29.567220 -19.168733 4.363599 0.000008 -0.000007 -121.652130 -47.766303 -135.749627 -0.000001 -0.000000 -10.306900 609.473790 -169.436175 553.862389 0.000003 0.000000 -12.404895 -326.506866 362.089911 -316.985473 -2.354803 -1.897202 5.063102 1.021627 11.934408 -14.087528 -4.375800 0.000004 -0.000016 78.285552 -2.620710 166.857970 -0.000001 0.000004 -10.004990 -591.046431 -173.434021 -546.216020 0.000000 0.000006 -13.174895 -51.951969 -14.479634 334.947942 2.240598 0.386803 -2.614101 136.118594 -38.752827 103.272310 -0.000000 0.000000 -18.592896 -113.500013 36.589849 132.726244 -0.000000 0.000000 -18.765799 10.493570 36.920157 -8.552820 -2.014900 -0.220901 -2.615897 -114.506100 -17.909393 -90.674292 0.000000 0.000004 -18.633884 176.378092 28.745657 -178.513824 -0.000006 -0.000005 -18.285084 -12.254083 33.582015 -209.253569
-6.228600 26.645603 7.977005 5.047560 -5.271055 5.064093 -0.204900 1.598098 7.917307 -5.189924 9.237660 1.253375 0.000001 0.000002 3.404096 -6.021080 -18.338225 -2.854178 -0.000001 0.000001 7.928596 8.645969 12.262246 -10.215954 -0.000000 0.000002 2.173907 1.554526 -4.975453 2.809431 2.833800 -1.396299 4.843304 68.055178 -29.631638 -18.735434 4.363605 0.000010 -0.000011 -122.705154 -47.676435 -136.050483 -0.000001 -0.000001 -10.306892 609.105123 -169.440095 553.683056 0.000002 0.000000 -12.404897 -326.274913 362.229083 -317.280646 -2.354802 -1.897201 5.063106 1.017977 11.864729 -14.380121 -4.375800 0.000005 -0.000009 78.420387 -2.429712 166.846468 0.000001 0.000005 -10.004992 -591.079107 -173.396182 -546.331641 0.000001 0.000007 -13.174900 -51.898421 -14.445833 335.662407 2.240599 0.386802 -2.614101 136.113499 -38.782924 103.271060 0.000001 0.000000 -18.592892 -113.695431 36.758050 132.856591 -0.000001 -0.000000 -18.765800 10.538236 36.983429 -8.765086 -2.014895 -0.220900 -2.615898 -114.431746 -18.027606 -90.642273 -0.000000 0.000003 -18.633888 176.175400 28.749222 -178.489959 -0.000006 -0.000007 -18.285086 -12.356990 33.548055 -209.111309
-6.229499 26.669802 7.947411 5.029780 -5.421260 5.043733 -0.204900 1.598100 7.917307 -5.169804 9.534527 1.335522 0.000001 0.000001 3.404106 -6.101318 -18.398858 -2.869208 -0.000001 -0.000001 7.928606 8.594125 12.004174 -10.210007 0.000000 0.000004 2.173900 1.432509 -5.144708 2.800234 2.833798 -1.396302 4.843303 68.695017 -29.649503 -18.250626 4.363600 0.000008 -0.000006 -123.629047 -47.582182 -136.284090 -0.000000 0.000002 -10.306900 608.810114 -169.452103 553.640873 0.000006 0.000009 -12.404895 -326.068204 362.333722 -317.605326 -2.354804 -1.897202 5.063107 1.142427 11.818322 -14.735023 -4.375798 0.000008 -0.000011 78.436506 -2.231258 166.890249 -0.000003 0.000003 -10.004995 -591.136043 -173.340680 -546.473491 -0.000000 0.000005 -13.174896 -51.785975 -14.414879 336.416214 2.240599 0.386802 -2.614103 136.077709 -38.773249 103.273492 -0.000000 -0.000003 -18.592894 -113.918929 36.956702 132.979808 -0.000000 -0.000000 -18.765797 10.482321 37.066508 -8.792844 -2.014896 -0.220896 -2.615899 -114.411420 -18.094465 -90.635531 -0.000000 0.000004 -18.633886 175.993389 28.741764 -178.448555 -0.000006 -0.000005 -18.285084 -12.472456 33.511818 -208.955240
-6.230299 26.697803 7.915112 5.024194 -5.524153 5.032062 -0.204900 1.598100 7.917304 -5.161656 9.772916 1.385497 0.000000 0.000005 3.404094 -6.164405 -18.460319 -2.879844 -0.000002 -0.000001 7.928599 8.493479 11.779235 -10.145700 0.000001 0.000003 2.173901 1.343318 -5.316071 2.787147 2.833794 -1.396301 4.843306 68.757520 -29.588714 -18.072371 4.363600 0.000007 -0.000008 -124.207550 -47.697639 -136.570643 -0.000001 0.000001 -10.306890 608.295281 -169.475230 553.585575 0.000004 -0.000002 -12.404893 -325.915044 362.495898 -317.994483 -2.354805 -1.897203 5.063107 1.386112 11.807734 -15.260217 -4.375799 0.000005 -0.000014 78.449217 -1.958119 167.013247 0.000000 0.000002 -10.004992 -591.070364 -173.250972 -546.620476 -0.000000 0.000007 -13.174895 -51.668182 -14.342429 337.114478 2.240598 0.386806 -2.614101 136.045784 -38.721186 103.315333 0.000001 -0.000002 -18.592892 -114.161804 37.161912 133.104336 0.000001 0.000000 -18.765795 10.398233 37.134874 -8.779087 -2.014894 -0.220899 -2.615900 -114.415231 -18.139908 -90.673773 -0.000000 0.000004 -18.633886 175.803837 28.740244 -178.410347 -0.000005 -0.000004 -18.285084 -12.592101 33.475915 -208.797312
